<?xml version="1.0" encoding="utf-8"?>
<!-- Generator: Adobe Illustrator 22.1.0, SVG Export Plug-In . SVG Version: 6.00 Build 0)  -->
<svg version="1.1" id="Layer_1" xmlns="http://www.w3.org/2000/svg" xmlns:xlink="http://www.w3.org/1999/xlink" x="0px" y="0px"
	 viewBox="0 0 1200 600" style="enable-background:new 0 0 1200 600;" xml:space="preserve">
<style type="text/css">
	.st0{fill:#0093B2;}
	.st1{fill:#84BD00;}
</style>
<g>
	<path class="st0" d="M184.8,355.7l-48.5-68.6l-24.8,27.8v40.8H85.3V205.4h26.2v75.1l67-75.1h31.8l-56,62.5l61.8,87.8H184.8z"/>
	<path class="st0" d="M324,237.2v118.5h-24.8v-17.1c-9.7,12.6-22.8,19.9-38.8,19.9c-25.9,0-40.8-17.4-40.8-44v-77.2h24.8v71.5
		c0,12.6,3.8,26.9,23.5,26.9c17.6,0,31.4-12.4,31.4-32v-66.3H324z"/>
	<path class="st0" d="M368.2,237.2v17.4c10.8-14.2,24.6-20.1,40.2-20.1c33.6,0,54.2,27.1,54.2,61.8c0,35.2-20.8,62.1-54.2,62.1
		c-15.6,0-29.3-5.9-40.2-19.9v56.4h-24.8V237.2H368.2z M402.7,336.1c22.6,0,33.4-17.8,33.4-39.5c0-21.9-10.8-39.7-33.4-39.7
		c-22.6,0-34.5,17.8-34.5,39.7C368.2,318.5,380.4,336.1,402.7,336.1z"/>
	<path class="st0" d="M592.9,302.7h-90.3c1.1,21.7,15.3,33.6,36.3,33.6c14,0,25.5-5.4,34.3-14.9l16.2,15.6
		c-12.4,13.1-28.9,21.4-51.4,21.4c-39.9,0-62.1-26.4-62.1-61.4c0-35.2,22.3-62.5,59.6-62.5c35.9,0,57.8,25.5,57.8,59.6
		C593.4,297.7,593.2,300.6,592.9,302.7z M568.3,284.6c-1.8-19.9-15.6-30-32.5-30c-18.7,0-31.4,12.4-32.7,30H568.3z"/>
</g>
<g>
	<rect x="644.5" y="234.1" class="st1" width="13.7" height="124.6"/>
</g>
<g>
	<path class="st1" d="M708.6,289.9v-52.3h20.7c16.7,0,25.9,11.2,25.9,26.1c0,14.8-9.2,26.1-25.9,26.1H708.6z M729.3,281.5
		c10.7,0,16.3-7,16.3-17.8c0-10.8-5.6-17.8-16.3-17.8h-11.5v35.6H729.3z"/>
	<path class="st1" d="M799.9,289.9l-4.9-13.3h-21.7l-4.9,13.3h-10l20.5-52.3h10.8l20.5,52.3H799.9z M784.2,245.7l-8.5,23.1h16.7
		L784.2,245.7z"/>
	<path class="st1" d="M834.2,245.6v44.3H825v-44.3h-17.2v-8h43.6v8H834.2z"/>
	<path class="st1" d="M890.4,289.9l-4.9-13.3h-21.7l-4.9,13.3h-10l20.5-52.3h10.8l20.5,52.3H890.4z M874.7,245.7l-8.5,23.1H883
		L874.7,245.7z"/>
	<path class="st1" d="M708.6,358.5v-52.3h38.1v8h-28.9V327h25.1v8h-25.1v15.5h29.7v8H708.6z"/>
	<path class="st1" d="M791.4,358.5L776.6,338L762,358.5h-11.1l20-27.2l-18.4-25h11.1l13.2,18.9l13.3-18.9h10.7l-18.2,25l19.9,27.2
		H791.4z"/>
	<path class="st1" d="M831.9,339.8h-13.6v18.8h-9.2v-52.3h22.8c12,0,19,6.7,19,16.8S843.9,339.8,831.9,339.8z M831.8,331.8
		c6.3,0,9.7-3.2,9.7-8.7c0-5.6-3.4-8.8-9.7-8.8h-13.5v17.5H831.8z"/>
	<path class="st1" d="M859.3,358.5v-52.3h9.1v43.9h28.1v8.3H859.3z"/>
	<path class="st1" d="M926.1,359.5c-16,0-26-11.8-26-27.1c0-15.3,10-27.1,26-27.1c16,0,26,11.8,26,27.1
		C952,347.7,942.1,359.5,926.1,359.5z M926.1,313.8c-10.4,0-16.4,7.8-16.4,18.6c0,10.7,6,18.6,16.4,18.6c10.3,0,16.4-7.8,16.4-18.6
		C942.5,321.7,936.3,313.8,926.1,313.8z"/>
	<path class="st1" d="M994.7,358.5l-10.5-20H971v20h-9.2v-52.3h23.5c11.5,0,18.3,6.4,18.3,15.8c0,7.5-4.7,12.6-10.4,14.8l11.8,21.7
		H994.7z M985.1,314.3h-14v16.6h14.2c5.3,0,8.9-3.2,8.9-8.2C994.2,317.3,990.4,314.3,985.1,314.3z"/>
	<path class="st1" d="M1014.1,358.5v-52.3h38.1v8h-28.9V327h25.1v8h-25.1v15.5h29.7v8H1014.1z"/>
	<path class="st1" d="M1095.7,358.5l-10.5-20H1072v20h-9.2v-52.3h23.5c11.5,0,18.3,6.4,18.3,15.8c0,7.5-4.7,12.6-10.4,14.8
		l11.8,21.7H1095.7z M1086.1,314.3h-14v16.6h14.2c5.3,0,8.9-3.2,8.9-8.2C1095.2,317.3,1091.4,314.3,1086.1,314.3z"/>
</g>
</svg>
