<?xml version="1.0" encoding="utf-8"?>
<!-- Generator: Adobe Illustrator 22.1.0, SVG Export Plug-In . SVG Version: 6.00 Build 0)  -->
<svg version="1.1" id="Layer_1" xmlns="http://www.w3.org/2000/svg" xmlns:xlink="http://www.w3.org/1999/xlink" x="0px" y="0px"
	 viewBox="0 0 311.8 109.6" style="enable-background:new 0 0 311.8 109.6;" xml:space="preserve">
<metadata><?xpacket begin="﻿" id="W5M0MpCehiHzreSzNTczkc9d"?>
<x:xmpmeta xmlns:x="adobe:ns:meta/" x:xmptk="Adobe XMP Core 5.6-c111 79.158366, 2015/09/25-01:12:00        ">
   <rdf:RDF xmlns:rdf="http://www.w3.org/1999/02/22-rdf-syntax-ns#">
      <rdf:Description rdf:about=""
            xmlns:xmp="http://ns.adobe.com/xap/1.0/"
            xmlns:xmpMM="http://ns.adobe.com/xap/1.0/mm/"
            xmlns:stEvt="http://ns.adobe.com/xap/1.0/sType/ResourceEvent#"
            xmlns:lr="http://ns.adobe.com/lightroom/1.0/"
            xmlns:dc="http://purl.org/dc/elements/1.1/"
            xmlns:Iptc4xmpCore="http://iptc.org/std/Iptc4xmpCore/1.0/xmlns/">
         <xmp:MetadataDate>2018-09-11T11:38:11+12:00</xmp:MetadataDate>
         <xmpMM:InstanceID>xmp.iid:068ae27e-82f7-9243-aab5-54e7dca0a8c0</xmpMM:InstanceID>
         <xmpMM:DocumentID>xmp.did:80c4753e-9054-8843-bdd9-e8f8158b5e1f</xmpMM:DocumentID>
         <xmpMM:OriginalDocumentID>xmp.did:80c4753e-9054-8843-bdd9-e8f8158b5e1f</xmpMM:OriginalDocumentID>
         <xmpMM:History>
            <rdf:Seq>
               <rdf:li>
                  <rdf:Description>
                     <stEvt:action>saved</stEvt:action>
                     <stEvt:instanceID>xmp.iid:80c4753e-9054-8843-bdd9-e8f8158b5e1f</stEvt:instanceID>
                     <stEvt:when>2018-09-11T11:06:47+12:00</stEvt:when>
                     <stEvt:softwareAgent>Adobe Bridge CC (Windows)</stEvt:softwareAgent>
                     <stEvt:changed>/metadata</stEvt:changed>
                  </rdf:Description>
               </rdf:li>
               <rdf:li>
                  <rdf:Description>
                     <stEvt:action>saved</stEvt:action>
                     <stEvt:instanceID>xmp.iid:068ae27e-82f7-9243-aab5-54e7dca0a8c0</stEvt:instanceID>
                     <stEvt:when>2018-09-11T11:38:11+12:00</stEvt:when>
                     <stEvt:softwareAgent>Adobe Bridge CC (Windows)</stEvt:softwareAgent>
                     <stEvt:changed>/metadata</stEvt:changed>
                  </rdf:Description>
               </rdf:li>
            </rdf:Seq>
         </xmpMM:History>
         <lr:hierarchicalSubject>
            <rdf:Bag>
               <rdf:li>technical|file format|svg</rdf:li>
               <rdf:li>technical|file type|logo</rdf:li>
               <rdf:li>technical|file type|logo|horizontal</rdf:li>
               <rdf:li>technical|file type|logo|online</rdf:li>
               <rdf:li>organisational|hpa</rdf:li>
               <rdf:li>organisational|hpa|te hiringa hauora</rdf:li>
               <rdf:li>organisational|health promotion agency</rdf:li>
            </rdf:Bag>
         </lr:hierarchicalSubject>
         <dc:subject>
            <rdf:Bag>
               <rdf:li>health promotion agency</rdf:li>
               <rdf:li>horizontal</rdf:li>
               <rdf:li>hpa</rdf:li>
               <rdf:li>logo</rdf:li>
               <rdf:li>online</rdf:li>
               <rdf:li>svg</rdf:li>
               <rdf:li>te hiringa hauora</rdf:li>
            </rdf:Bag>
         </dc:subject>
         <dc:creator>
            <rdf:Seq>
               <rdf:li>Health Promotion Agency</rdf:li>
            </rdf:Seq>
         </dc:creator>
         <Iptc4xmpCore:CreatorContactInfo>
            <rdf:Description>
               <Iptc4xmpCore:CiAdrExtadr>101 The Terrace</Iptc4xmpCore:CiAdrExtadr>
               <Iptc4xmpCore:CiAdrCity>Wellington</Iptc4xmpCore:CiAdrCity>
               <Iptc4xmpCore:CiAdrPcode>6011</Iptc4xmpCore:CiAdrPcode>
               <Iptc4xmpCore:CiAdrCtry>New Zealand</Iptc4xmpCore:CiAdrCtry>
               <Iptc4xmpCore:CiTelWork>04 917 0060 </Iptc4xmpCore:CiTelWork>
               <Iptc4xmpCore:CiUrlWork>www.hpa.org.nz</Iptc4xmpCore:CiUrlWork>
            </rdf:Description>
         </Iptc4xmpCore:CreatorContactInfo>
      </rdf:Description>
   </rdf:RDF>
</x:xmpmeta>
                                                                                                    
                                                                                                    
                                                                                                    
    
<?xpacket end="w"?></metadata>
<style type="text/css">
	.Arched_x0020_Green{fill:url(#SVGID_1_);stroke:#FFFFFF;stroke-width:0.25;stroke-miterlimit:1;}
	.st0{fill:#FFFFFF;}
</style>
<linearGradient id="SVGID_1_" gradientUnits="userSpaceOnUse" x1="-137.9512" y1="388.8452" x2="-137.2441" y2="388.1381">
	<stop  offset="0" style="stop-color:#1EAB4B"/>
	<stop  offset="0.9831" style="stop-color:#19361A"/>
</linearGradient>
<g>
	<path class="st0" d="M72.1,43.1c-3.7,0-6.7,3-6.7,6.7c0,3.7,3,6.7,6.7,6.7c3.7,0,6.7-3,6.7-6.7C78.8,46.1,75.8,43.1,72.1,43.1z"/>
	<path class="st0" d="M84.7,14.2c0,0-31.8,0-35.1,0c-19.6,0-35.5,16.1-35.5,35.7c0,19.6,15.9,35.5,35.5,35.5
		c19.6,0,35.5-15.9,35.5-35.5c0-1.4,0-22.1,0-23.3c0-5.6,3.5-9.1,3.6-10.9v-0.1C88.7,14.6,87.7,14.2,84.7,14.2z M39.6,57.6
		c0,0.6-1,2.1-3.1,2.1h-0.1v-10c0-3.6-2.8-6.6-6.1-6.6c-3.3,0-5.9,2.9-6,6.6v10h-0.8c-2,0-2.5-1.6-2.5-2.2V35.1
		c0-0.6,0.5-2.1,2.5-2.1h0.7v9.2c1.6-1.5,3.7-2.3,6-2.3c3.2,0,6.1,1.7,7.8,4.4c0,0,1.6,2.4,1.6,5.6V57.6z M60,55.2
		c-1.3,2.1-4,4.3-7.6,4.3c-3.3,0-6.6-1.9-6.6-6.1l0-0.3c0-1.7,0.8-3.1,2.2-3.8l0.1,0c0.1,0,0.2-0.1,0.3-0.1c0.1,0,0.2-0.1,0.3-0.1
		c0.1,0,0.2-0.1,0.3-0.1l0.1,0c0.2,0,0.5,0,0.7,0c0.9,0.1,1.7,0.6,2.2,1.3c0.4,0.5,0.5,1.1,0.5,1.8v0.1c0,1-0.9,3-3.2,2.9
		c0.5,0.9,2.2,1.2,3,1.2c2.8,0,5.8-2.6,5.8-6.5c0-3.7-3.1-6.7-7.1-6.6c-3.8,0.1-6.9,3.1-6.9,6.7l0,15.3c0,0.6-1,2.1-3,2.1h-0.1V49.7
		c0-3.6,1.6-5.4,1.6-5.4c1.8-2.7,5-4.4,8.4-4.4c3.5,0,7,1.8,8.7,4.5c0,0,1.5,1.9,1.5,5.2C61.5,52.9,60,55.2,60,55.2z M82,50.4V56
		c0,0,0.1,1.8-0.6,2.5c-0.7,0.7-1.7,0.8-2.6,0.8c0,0,0-1,0-2.2c-0.8,0.7-1.7,1.3-2.7,1.7c-1.2,0.5-2.6,0.8-4,0.8
		c-5.5,0-9.9-4.4-9.9-9.9c0-5.5,4.4-9.9,9.9-9.9c4.9,0,9,3.5,9.8,8.2l0,0c0,0,0,0,0,0.1c0.1,0.5,0.1,1,0.1,1.6c0,0.1,0,0.2,0,0.3
		C82,50.2,82,50.4,82,50.4z"/>
</g>
<g>
	<path class="st0" d="M288.3,50.8V43c0-2.3,1.6-3.7,3.7-3.7c2.3,0,2.7,1.7,2.7,3.1v8.4h2.9v-9c0-3.1-1.7-5.1-4.8-5.1
		c-1.9,0-3.4,0.8-4.5,2.3v-2h-2.9v13.8H288.3z M280.4,43.9c0,2.7-1.4,4.7-3.9,4.7c-2.5,0-3.9-2-3.9-4.7c0-2.7,1.4-4.7,3.9-4.7
		C279,39.1,280.4,41.2,280.4,43.9 M283.5,43.9c0-4.2-2.7-7.3-7-7.3c-4.3,0-7,3-7,7.3c0,4.2,2.7,7.2,7,7.2
		C280.8,51.1,283.5,48.1,283.5,43.9 M267.5,31.9h-2.9v2.7h2.9V31.9z M267.5,36.9h-2.9v13.8h2.9V36.9z M262.2,47.9
		c-0.4,0.3-1,0.6-1.7,0.6c-1.2,0-1.9-0.7-1.9-2.1v-7.3h4.3v-2.2h-4.3v-3.7h-2.9v3.7h-2.3v2.2h2.3v7.3c0,1.3,0.2,2.2,0.7,2.9
		c0.8,1.2,2.1,1.8,3.7,1.8c1.3,0,2.4-0.4,3.3-1L262.2,47.9z M249.8,43.9c0,2.7-1.4,4.7-3.9,4.7c-2.5,0-3.9-2-3.9-4.7
		c0-2.7,1.4-4.7,3.9-4.7C248.4,39.1,249.8,41.2,249.8,43.9 M252.9,43.9c0-4.2-2.7-7.3-7-7.3c-4.3,0-7,3-7,7.3c0,4.2,2.7,7.2,7,7.2
		C250.2,51.1,252.9,48.1,252.9,43.9 M219.3,50.8V43c0-2.3,1.5-3.7,3.4-3.7c2.2,0,2.6,1.6,2.6,3.1v8.4h2.9V43c0-2.3,1.5-3.7,3.4-3.7
		c2.2,0,2.6,1.6,2.6,3.1v8.4h2.9v-9.1c0-3.1-1.6-5.1-4.6-5.1c-1.9,0-3.6,0.9-4.8,2.6c-0.6-1.7-2-2.6-4-2.6c-1.8,0-3.2,0.8-4.3,2.3
		v-2h-2.9v13.8H219.3z M211.3,43.9c0,2.7-1.4,4.7-3.9,4.7c-2.5,0-3.9-2-3.9-4.7c0-2.7,1.4-4.7,3.9-4.7
		C209.9,39.1,211.3,41.2,211.3,43.9 M214.4,43.9c0-4.2-2.7-7.3-7-7.3c-4.3,0-7,3-7,7.3c0,4.2,2.7,7.2,7,7.2
		C211.7,51.1,214.4,48.1,214.4,43.9 M200.4,37.1c-0.4-0.3-1.1-0.5-1.8-0.5c-1.6,0-3,1.1-3.9,2.5v-2.2h-2.9v13.8h2.9v-7
		c0-2.6,1.6-4.2,3.3-4.2c0.6,0,1.1,0.2,1.6,0.4L200.4,37.1z M178.8,43.9c0-2.6,1.4-4.6,4-4.6c2.6,0,3.9,2.1,3.9,4.6
		c0,2.5-1.3,4.6-3.9,4.6C180.3,48.5,178.8,46.4,178.8,43.9 M175.9,36.9v18.4h2.9v-6.6c1.3,1.6,2.9,2.3,4.7,2.3
		c3.9,0,6.3-3.1,6.3-7.3c0-4.1-2.4-7.2-6.3-7.2c-1.8,0-3.4,0.7-4.7,2.3v-2H175.9z"/>
	<path class="st0" d="M157.8,50.7V43c0-2.3,1.6-3.7,3.7-3.7c2.3,0,2.7,1.7,2.7,3.1v8.4h2.9v-9c0-3.1-1.7-5.1-4.8-5.1
		c-1.9,0-3.4,0.8-4.5,2.3v-7h-2.9v18.8H157.8z M152,47.9c-0.4,0.3-1,0.6-1.7,0.6c-1.2,0-1.9-0.7-1.9-2.1v-7.3h4.3v-2.2h-4.3v-3.7
		h-2.9v3.7h-2.3v2.2h2.3v7.3c0,1.3,0.2,2.2,0.7,2.9c0.8,1.2,2.1,1.8,3.7,1.8c1.3,0,2.4-0.4,3.3-1L152,47.9z M137.8,47.1
		c0,1.2,0.1,2,0.6,2.6c0.6,0.9,1.7,1.3,3,1.3c1,0,1.8-0.2,2.2-0.5l-0.6-2.2c-0.2,0.1-0.7,0.3-1.2,0.3c-0.7,0-1.2-0.3-1.2-1.5V31.9
		h-2.9V47.1z M131.5,43.8c0,2.6-1.4,4.6-4,4.6c-2.6,0-3.9-2.1-3.9-4.6c0-2.6,1.3-4.6,3.9-4.6C130.1,39.2,131.5,41.2,131.5,43.8
		 M134.4,36.9h-2.9v2c-1.2-1.7-2.8-2.3-4.7-2.3c-3.9,0-6.4,3.1-6.4,7.3c0,4.1,2.4,7.2,6.4,7.2c1.8,0,3.6-0.6,4.8-2.3
		c0.4,1.6,1.7,2.2,3,2.2c0.5,0,1.3-0.1,1.8-0.3l-0.3-2c-0.2,0.1-0.5,0.2-0.8,0.2c-0.7,0-1-0.4-1-1.3V36.9z M108.4,42.4
		c0.2-2.1,1.6-3.5,3.8-3.5c2,0,3.6,1.2,3.8,3.5H108.4z M119,43.5c0-4-2.6-7-6.8-7c-4.4,0-7,3.2-7,7.3c0,4.1,2.6,7.2,7.3,7.2
		c2.6,0,4.6-1,6-2.5l-1.9-1.8c-1,1.1-2.4,1.7-4,1.7c-2.5,0-4.1-1.4-4.2-3.9h10.6C119,44.3,119,44,119,43.5 M94.2,50.7V43
		c0-2.3,1.6-3.7,3.7-3.7c2.3,0,2.7,1.7,2.7,3.1v8.4h2.9v-9c0-3.1-1.7-5.1-4.8-5.1c-1.9,0-3.4,0.8-4.5,2.3v-7h-2.9v18.8H94.2z"/>
	<path class="st0" d="M172.1,68.4c0,3.1-2.2,4.2-4.5,4.2c-1.4,0-2.9-0.4-4.1-1.4l-1,1.4c1.3,1,2.9,1.6,5,1.6c2.3,0,4-0.8,5-2
		c0.9-1.1,1.2-2.4,1.2-4.1V56.3h-1.6v6.4c0,2.8-1.9,4.7-4.5,4.7c-2.8,0-3.3-2.1-3.3-3.9v-7.2h-1.6v7.6c0,3.3,1.9,5.1,4.7,5.1
		c2.1,0,3.6-1,4.7-2.7V68.4z M159.6,66.2c-0.8,1.2-2.1,2.1-3.9,2.1c-2.8,0-4.5-2.3-4.5-5.4c0-3,1.7-5.3,4.5-5.3c1.7,0,3,0.8,3.8,2
		l1.3-1c-1.2-1.6-2.9-2.6-5.1-2.6c-3.8,0-6.3,3-6.3,6.9c0,3.9,2.4,6.9,6.2,6.9c2.3,0,4.1-1.1,5.2-2.6L159.6,66.2z M137.9,69.5v-7.3
		c0-2.8,1.9-4.7,4.5-4.7c2.8,0,3.3,2.1,3.3,3.9v8.1h1.6V61c0-3.3-1.9-5.1-4.7-5.1c-2.1,0-3.6,1-4.7,2.7v-2.4h-1.6v13.2H137.9z
		 M123.3,61.8c0.2-2.5,1.9-4.3,4.5-4.3c2.3,0,4.2,1.5,4.5,4.3H123.3z M134,62.5c0-3.6-2.4-6.5-6.2-6.5c-3.9,0-6.3,3.1-6.3,7
		c0,3.9,2.5,6.9,6.6,6.9c2.2,0,3.8-0.8,5.2-2.3l-1.2-1.2c-1.1,1.2-2.4,1.8-4,1.8c-2.8,0-4.7-1.9-4.9-4.9H134
		C134,63.1,134,62.9,134,62.5 M117.6,62.4c0,2.7-1.7,4.9-4.8,4.9c-3.1,0-4.6-2.3-4.6-4.9c0-2.6,1.5-4.9,4.6-4.9
		C115.9,57.6,117.6,59.8,117.6,62.4 M119.2,67.5V56.3h-1.6v2.4c-1.1-1.9-3-2.7-5-2.7c-3.5,0-6.1,2.7-6.1,6.5c0,3.7,2.5,6.4,6,6.4
		c2,0,4-0.8,5.1-2.7v1.6c0,3.4-2.2,4.8-5,4.8c-1.8,0-3.3-0.5-4.5-1.4l-1,1.4c1.5,1.1,3.3,1.6,5.4,1.6c2.2,0,4.1-0.6,5.4-2.1
		C118.8,71,119.2,69.5,119.2,67.5 M101.9,62.9c0,3-1.6,5.3-4.7,5.3c-3.1,0-4.6-2.4-4.6-5.3c0-3,1.5-5.3,4.6-5.3
		C100.3,57.5,101.9,59.9,101.9,62.9 M103.6,56.3h-1.6v2.4c-1.3-2-3.1-2.7-4.9-2.7c-3.8,0-6.1,3-6.1,6.9c0,3.9,2.3,6.9,6.2,6.9
		c1.7,0,3.7-0.6,4.9-2.5c0.2,1.7,1.3,2.4,2.5,2.4c0.4,0,0.9-0.1,1.3-0.2l-0.2-1.4c-0.2,0.1-0.5,0.2-0.8,0.2c-0.9,0-1.2-0.5-1.2-1.6
		V56.3z"/>
</g>
<g>
	<path class="st0" d="M97.1,85v10.6h-1.7V85h-4.1v-1.6h10V85H97.1z"/>
	<path class="st0" d="M103,95.6V83.4h8.6V85h-6.9v3.4h6v1.5h-6V94h7.1v1.6H103z"/>
	<path class="st0" d="M127.6,95.6v-5.7H121v5.7h-1.7V83.4h1.7v4.9h6.6v-4.9h1.7v12.2H127.6z"/>
	<path class="st0" d="M132.2,95.6V83.4h1.7v12.2H132.2z"/>
	<path class="st0" d="M144.6,95.6l-2.6-4.9h-3.5v4.9h-1.7V83.4h5.3c2.5,0,4.1,1.4,4.1,3.6c0,1.7-1.1,2.9-2.5,3.4l2.8,5.2H144.6z
		 M142.1,85h-3.6v4.2h3.6c1.4,0,2.3-0.8,2.3-2.1C144.4,85.8,143.5,85,142.1,85z"/>
	<path class="st0" d="M148.9,95.6V83.4h1.7v12.2H148.9z"/>
	<path class="st0" d="M161.1,95.6l-6.4-10v10h-1.6V83.4h2.2l6.2,9.8v-9.8h1.6v12.2H161.1z"/>
	<path class="st0" d="M167.1,89.5c0,2.8,1.6,4.7,4.1,4.7c2.2,0,3.8-1.3,3.9-3.4h-3.9v-1.5h5.6c0,0.2,0.1,0.5,0.1,0.9
		c0,2.9-2,5.5-5.6,5.5c-3.6,0-5.9-2.7-5.9-6.3c0-3.7,2.3-6.3,5.9-6.3c2.1,0,3.7,0.9,4.8,2.4l-1.4,0.9c-0.7-1.1-1.9-1.8-3.4-1.8
		C168.6,84.8,167.1,86.7,167.1,89.5z"/>
	<path class="st0" d="M187.3,95.6l-1.3-3.4h-5.5l-1.3,3.4h-1.8l4.9-12.2h1.9l5,12.2H187.3z M183.3,85.1l-2.2,5.6h4.3L183.3,85.1z"/>
	<path class="st0" d="M204.3,95.6v-5.7h-6.6v5.7H196V83.4h1.7v4.9h6.6v-4.9h1.7v12.2H204.3z"/>
	<path class="st0" d="M217.3,95.6l-1.3-3.4h-5.5l-1.3,3.4h-1.8l4.9-12.2h1.9l5,12.2H217.3z M213.3,85.1l-2.2,5.6h4.3L213.3,85.1z"/>
	<path class="st0" d="M229.6,91c0,2.9-2.1,4.8-5,4.8c-2.9,0-5-1.8-5-4.8v-7.6h1.7V91c0,1.9,1.2,3.2,3.3,3.2c2,0,3.3-1.3,3.3-3.2
		v-7.6h1.7V91z"/>
	<path class="st0" d="M237.1,95.8c-3.6,0-5.9-2.7-5.9-6.3c0-3.6,2.3-6.3,5.9-6.3c3.6,0,5.9,2.7,5.9,6.3
		C243.1,93.1,240.8,95.8,237.1,95.8z M237.1,84.8c-2.6,0-4.1,1.9-4.1,4.7s1.6,4.7,4.1,4.7c2.6,0,4.1-2,4.1-4.7
		S239.7,84.8,237.1,84.8z"/>
	<path class="st0" d="M252.6,95.6l-2.6-4.9h-3.5v4.9h-1.7V83.4h5.3c2.5,0,4.1,1.4,4.1,3.6c0,1.7-1.1,2.9-2.5,3.4l2.8,5.2H252.6z
		 M250.1,85h-3.6v4.2h3.6c1.4,0,2.3-0.8,2.3-2.1C252.5,85.8,251.5,85,250.1,85z"/>
	<path class="st0" d="M265.7,95.6l-1.3-3.4h-5.5l-1.3,3.4h-1.8l4.9-12.2h1.9l5,12.2H265.7z M261.7,85.1l-2.2,5.6h4.3L261.7,85.1z"/>
</g>
</svg>
