<svg id="Layer_1" data-name="Layer 1" xmlns="http://www.w3.org/2000/svg" viewBox="0 0 324.27 33"><defs><style>.cls-1{fill:#fff;}</style></defs><title>logo_nz_govt2</title><path class="cls-1" d="M0,31.4s40.9-4.62,79.58-4.62c39.51,0,80.65,4.62,80.65,4.62V33s-41.41-4.38-80.65-4.38C40.9,28.66,0,33,0,33V31.4Zm15.73-7.53H12.2L6,11.35A63.7,63.7,0,0,1,3.14,4.89H2.93c.17,2,.24,4.38.27,6.57l.14,12.41H2c-1.49,0-2-1.44-2-3.07V.31H3.86l6.57,13A45.57,45.57,0,0,1,12.76,19l.24-.07c-.07-.68-.34-4.41-.34-7L12.55.31h3.18V23.87Zm58.63-2.46-.82,2.74H59.48V21.62L69,6.6a22.81,22.81,0,0,1,1.68-2.43c-.68.07-1.54.1-2.7.1H59.89l.79-2.74H74.22V4.17l-9.41,15c-.51.89-1.06,1.57-1.47,2.26h11ZM182.52,22a13.55,13.55,0,0,1-7,1.88,9.31,9.31,0,0,1-7.46-3.18c-1.88-2.19-2.74-5-2.74-8.83a12.28,12.28,0,0,1,4.07-9.24,8.82,8.82,0,0,1,5.92-2A9.83,9.83,0,0,1,182,3l-1.57,2.05a8,8,0,0,0-5-1.78,5.36,5.36,0,0,0-5.06,3A10.79,10.79,0,0,0,169,12.1c0,3.25.58,5.68,1.68,7.11a6.51,6.51,0,0,0,5.06,2.12,7,7,0,0,0,3.49-.89v-6.7h-4.34L174.37,11h8.14V22h0Zm17.15-6.88c0,5.44-2.91,8.89-7.46,8.89s-7.42-3.49-7.42-9.06,2.84-9,7.35-9c5.06,0,7.53,4,7.53,9.2h0Zm-3.52.14c0-5.3-1.54-6.91-4-6.91-2.74,0-3.87,2-3.87,6.26,0,5.23,1.33,7,4,7,2.39,0,3.86-1.85,3.86-6.33h0Zm19.26-8.86-6.26,17.27h-2.94L200.07,6.53,203.32,6l3.39,10.36c.38,1.16.75,2.53,1,3.69.27-1,.62-2.36,1.09-3.76l3.25-9.85h3.36Zm14.32,9.24H219.28v.41a6.44,6.44,0,0,0,.72,3.42,4.47,4.47,0,0,0,3.93,2,6.09,6.09,0,0,0,4.21-1.64l1.2,1.88A8.75,8.75,0,0,1,223.42,24c-4.75,0-7.66-3.45-7.66-9.06,0-3,.58-4.89,2.05-6.64A6.39,6.39,0,0,1,223,5.91a6.18,6.18,0,0,1,4.65,1.85c1.51,1.54,2.05,3.45,2.09,7.39v.55h0Zm-3.28-2.33a6.27,6.27,0,0,0-1.06-3.87,3.08,3.08,0,0,0-2.46-1.2c-2.39,0-3.59,2-3.59,5.06h7.11Zm14.72-7.29-1.1,3.15a2.57,2.57,0,0,0-.89-.17,3.59,3.59,0,0,0-3.56,3.49v11h-3.15V11a10.93,10.93,0,0,0-.65-4.28l3-.79a7.09,7.09,0,0,1,.58,2.63v.33c1.37-2,2.84-3,4.65-3a3.12,3.12,0,0,1,1.06.17h.06Zm15,17.51h-3.11V12c0-1.54-.14-2.09-.55-2.63a2.12,2.12,0,0,0-1.74-.68,6.92,6.92,0,0,0-4.24,2.19V23.59h-3.11V10.84a9.35,9.35,0,0,0-.65-4.07l3-.82a5.44,5.44,0,0,1,.58,2.63,15.67,15.67,0,0,1,2.22-1.68,6.35,6.35,0,0,1,3.15-.9,4.29,4.29,0,0,1,4,2.43,5.38,5.38,0,0,1,.41,2.15v13h0Zm24.63,0h-3.11V11.31c0-1.95-.62-2.63-2-2.63s-2.7,1-4,2.33V23.59h-3.08V11.38c0-1.92-.55-2.63-2.12-2.63a5.89,5.89,0,0,0-3.93,2V23.59H259.4V11a9.32,9.32,0,0,0-.62-4.28L261.71,6a4.85,4.85,0,0,1,.58,2.39A7,7,0,0,1,267.11,6a4.42,4.42,0,0,1,4.07,2.7A7.35,7.35,0,0,1,276.42,6c2.67,0,4.38,1.68,4.38,4.82V23.59h0Zm16.38-7.9H286.75v.42a6.45,6.45,0,0,0,.72,3.42,4.47,4.47,0,0,0,3.93,2,6.09,6.09,0,0,0,4.21-1.64l1.2,1.88A8.75,8.75,0,0,1,290.88,24c-4.75,0-7.66-3.45-7.66-9.06,0-3,.58-4.89,2-6.64a6.39,6.39,0,0,1,5.16-2.36,6.18,6.18,0,0,1,4.65,1.85c1.51,1.54,2,3.45,2.09,7.39v.55h0Zm-3.28-2.33a6.27,6.27,0,0,0-1.06-3.87,3.08,3.08,0,0,0-2.46-1.2c-2.39,0-3.59,2-3.59,5.06h7.11Zm18.79,10.23h-3.11V12c0-1.54-.14-2.09-.55-2.63a2.12,2.12,0,0,0-1.74-.68A6.92,6.92,0,0,0,303,10.9V23.59h-3.11V10.84a9.35,9.35,0,0,0-.65-4.07l3-.82a5.44,5.44,0,0,1,.58,2.63A15.65,15.65,0,0,1,305,6.9a6.35,6.35,0,0,1,3.19-.9,4.29,4.29,0,0,1,4,2.43,5.39,5.39,0,0,1,.41,2.15v13h0ZM324.27,6.46l-.85,2.22H320V19c0,2.12.51,2.77,2.22,2.77a3.77,3.77,0,0,0,1.61-.34l.38,1.92a6.83,6.83,0,0,1-3.11.72,4.74,4.74,0,0,1-2.91-.86c-.72-.65-1.27-1-1.27-3.49v-11h-2V6.46h2a37.15,37.15,0,0,1,.21-4.38l3.25-.75a51.39,51.39,0,0,0-.31,5.13ZM32.07,15.69H21.59v.41a6.48,6.48,0,0,0,.72,3.44,4.49,4.49,0,0,0,4,2,6.13,6.13,0,0,0,4.23-1.65l1.2,1.89a8.79,8.79,0,0,1-6,2.22C21,24,18,20.53,18,14.9c0-3,.58-4.92,2.06-6.67A6.42,6.42,0,0,1,25.3,5.86,6.21,6.21,0,0,1,30,7.71c1.51,1.55,2.06,3.47,2.1,7.42v.55h0Zm-3.3-2.34A6.3,6.3,0,0,0,27.7,9.47a3.09,3.09,0,0,0-2.48-1.2c-2.41,0-3.61,2-3.61,5.09h7.16ZM55.83,6.41,51,23.77H48l-2.51-9.38c-.31-1.2-1.07-4.06-1.07-4.06h-.1s-.69,2.92-.93,3.85l-2.58,9.59h-3L33,6.54,36.24,6l2.2,9.66c.38,1.72.89,4.23.89,4.23h.1s.38-2.44.79-3.92l2.61-9.59H46.1l2.41,9.32c.48,1.86,1,4,1,4.19h.14c0-.17.55-3,.79-4.09l2.13-9.42h3.3ZM87.9,15.69H77.42v.41a6.48,6.48,0,0,0,.72,3.44,4.49,4.49,0,0,0,4,2,6.13,6.13,0,0,0,4.23-1.65l1.2,1.89a8.79,8.79,0,0,1-6,2.22c-4.78,0-7.7-3.47-7.7-9.11,0-3,.58-4.92,2.06-6.67a6.42,6.42,0,0,1,5.19-2.37A6.21,6.21,0,0,1,85.8,7.71c1.51,1.55,2.06,3.47,2.1,7.42v.55h0Zm-3.3-2.34a6.3,6.3,0,0,0-1.07-3.88A3.09,3.09,0,0,0,81,8.27c-2.41,0-3.61,2-3.61,5.09H84.6Zm19.53,8.87-1.62,2.13a3.93,3.93,0,0,1-2.3-2.47,6,6,0,0,1-4.88,2.27c-3.44,0-5.57-1.75-5.57-5.05,0-4,3.2-6.12,8.77-6.12h1.2V11.87c0-2-.28-3.4-2.68-3.4a9.51,9.51,0,0,0-5.29,2L90.32,8.16a13.56,13.56,0,0,1,7.22-2.27c2.51,0,4.33.93,5,2.75a7.86,7.86,0,0,1,.34,3c0,1.24-.14,3.88-.14,6.39s.07,3.33,1.41,4.16h0Zm-4.47-7c-.48,0-.76-.07-1-.07-2.37,0-3.82.45-4.5,1.24a3.32,3.32,0,0,0-.89,2.51c0,1.89,1,3,2.72,3a4.29,4.29,0,0,0,3.61-2.27l.1-4.4h0Zm12,8.42a4.63,4.63,0,0,1-2,.38A2.92,2.92,0,0,1,107,22.71c-.52-.72-.65-1.31-.65-3v-14a22.38,22.38,0,0,0-.33-5L109.3,0a21.35,21.35,0,0,1,.31,4.92V18.85c0,1.82.1,2.23.45,2.54a1.13,1.13,0,0,0,1.07.24l.55,2h0Zm15.69-1.37-1.62,2.13a3.93,3.93,0,0,1-2.3-2.47,6,6,0,0,1-4.88,2.27c-3.44,0-5.57-1.75-5.57-5.05,0-4,3.2-6.12,8.77-6.12h1.2V11.87c0-2-.28-3.4-2.68-3.4a9.51,9.51,0,0,0-5.29,2L113.54,8.2a13.56,13.56,0,0,1,7.22-2.27c2.51,0,4.33.93,5,2.75a7.86,7.86,0,0,1,.34,3c0,1.24-.14,3.88-.14,6.39s.07,3.33,1.41,4.16h0Zm-4.47-7c-.48,0-.76-.07-1-.07-2.37,0-3.82.45-4.5,1.24a3.32,3.32,0,0,0-.89,2.51c0,1.89,1,3,2.72,3a4.29,4.29,0,0,0,3.61-2.27l.1-4.4h0Zm36.75,8.46h-3a6.7,6.7,0,0,1-.31-1.62A5.75,5.75,0,0,1,151.89,24c-4.4,0-7-3.3-7-8.73,0-3.71,1.27-6.57,3.61-8.08a5.94,5.94,0,0,1,3.37-1,5.13,5.13,0,0,1,4.19,2c0-.48-.07-3.11-.07-4.28V.24l3.16.52V17.85a20.63,20.63,0,0,0,.48,5.77h0ZM156,19.26v-9a4.41,4.41,0,0,0-3.64-1.62,3.37,3.37,0,0,0-3,1.75,9.14,9.14,0,0,0-.89,4.74c0,3.33.41,4.26,1.34,5.22a3.23,3.23,0,0,0,2.54.89,4.08,4.08,0,0,0,3.64-2h0Zm-13.78,4.37h-3.13V12c0-1.55-.14-2.1-.55-2.65a2.13,2.13,0,0,0-1.75-.69,7,7,0,0,0-4.26,2.2V23.63h-1.59c-1,0-1.54-.75-1.54-1.93V10.81a9.39,9.39,0,0,0-.65-4.09l3-.83a5.47,5.47,0,0,1,.58,2.65,15.76,15.76,0,0,1,2.23-1.68,6.38,6.38,0,0,1,3.2-.86,4.31,4.31,0,0,1,4.06,2.44,5.41,5.41,0,0,1,.41,2.17v13h0Z"/></svg>