<svg xmlns="http://www.w3.org/2000/svg" viewBox="0 0 23.88 23.88"><defs><style>.cls-1{fill:#e79500;stroke:#fff;stroke-miterlimit:10;stroke-width:2.5px;}.cls-2{fill:#fff;}</style></defs><title>Info_btn</title><g id="Layer_2" data-name="Layer 2"><g id="arwork"><circle class="cls-1" cx="11.94" cy="11.94" r="10.69"/><path class="cls-2" d="M13.48,16.45l-.11.49a10.14,10.14,0,0,1-1.13.39,2.91,2.91,0,0,1-.72.11,1.22,1.22,0,0,1-.92-.32,1.09,1.09,0,0,1-.31-.79,2.33,2.33,0,0,1,0-.37q0-.19.1-.48l.81-3.26q.06-.27.12-.58a2.91,2.91,0,0,0,.06-.52.83.83,0,0,0-.14-.57.84.84,0,0,0-.58-.14,2.51,2.51,0,0,0-.45.05l-.42.09.11-.49A7.54,7.54,0,0,1,11,9.68a3,3,0,0,1,.75-.13,1.21,1.21,0,0,1,.91.3,1.12,1.12,0,0,1,.28.81,3.11,3.11,0,0,1,0,.38,3.9,3.9,0,0,1-.09.48L12,14.77c0,.2-.09.4-.13.59a2.51,2.51,0,0,0-.06.47.75.75,0,0,0,.2.6,1,1,0,0,0,.63.16l.42,0A2.11,2.11,0,0,0,13.48,16.45ZM14,6.65a1.12,1.12,0,0,1-.28.76.9.9,0,0,1-.7.33.88.88,0,0,1-.67-.31,1,1,0,0,1-.28-.71A1.06,1.06,0,0,1,12.36,6,.88.88,0,0,1,13,5.67a.93.93,0,0,1,.71.29A1,1,0,0,1,14,6.65Z"/></g></g></svg>