<?xml version="1.0" encoding="utf-8"?>
<!-- Generator: Adobe Illustrator 22.1.0, SVG Export Plug-In . SVG Version: 6.00 Build 0)  -->
<svg version="1.1" id="Layer_1" xmlns="http://www.w3.org/2000/svg" xmlns:xlink="http://www.w3.org/1999/xlink" x="0px" y="0px"
	 viewBox="0 0 300 300" style="enable-background:new 0 0 300 300;" xml:space="preserve">
<style type="text/css">
	.st0{fill:#84BD00;}
	.st1{fill:#FFFFFF;}
	.st2{fill:#833177;}
	.st3{fill:#0093B2;}
	.st4{fill:#FFD100;}
	.st5{fill:#ED8B00;}
</style>
<circle class="st4" cx="150" cy="150" r="150"/>
<g>
	<g>
		<g>
			<path class="st1" d="M229.5,167.2c3.2-6.7,5.1-14.1,5.1-22c0-28-22.8-50.8-50.8-50.8c-17.1,0-32.3,8.5-41.5,21.5
				c-7.7-3.9-16.3-6.1-25.2-6.1c-24.6,0-45.8,15.9-53,39c-0.5,0-1,0-1.5,0c-20.6,0-36,21.1-36,39.9c0,20.6,16.5,38,36,38h152.3
				c15.5,0,29-14.5,29-31C243.9,183.5,238.1,173,229.5,167.2z M183.7,103.3c23.1,0,41.9,18.8,41.9,41.9c0,6.6-1.6,12.8-4.3,18.4
				c-2.1-0.5-4.2-0.8-6.4-0.8c-0.8,0-1.6,0-2.4,0.1c-6.5-14.9-21.3-24.7-37.8-24.7c-3,0-5.9,0.3-8.8,0.9c-4-7.4-9.5-13.7-16.1-18.5
				C157.5,110.2,169.8,103.3,183.7,103.3z M214.9,217.8H62.7c-14.4,0-27.1-13.6-27.1-29.1c0-14.3,11.8-31,27.1-31
				c1.2,0,2.5,0.1,4.1,0.3c2.3,0.4,4.5-1.1,5-3.4c4.9-21.2,23.6-35.9,45.3-35.9c7.3,0,14.4,1.8,20.7,4.9c2.7,1.3,5.2,2.9,7.6,4.7
				c6,4.6,10.9,10.7,14.1,17.8c0.9,2.1,3.3,3.1,5.4,2.4c3.2-1,6.5-1.5,9.8-1.5c13.9,0,26.3,8.9,30.7,22.1c0.7,2.2,3,3.4,5.2,2.9
				c1.4-0.3,2.9-0.5,4.3-0.5c0.4,0,0.8,0,1.2,0.1c3.2,0.2,6.2,1.3,8.8,3.1c6,4.1,10.1,11.9,10.1,20.8
				C235,207.2,225.4,217.8,214.9,217.8z"/>
		</g>
		<rect x="242.7" y="140.5" class="st1" width="33.7" height="8.7"/>
		
			<rect x="222" y="87.5" transform="matrix(0.7071 -0.7071 0.7071 0.7071 4.7472 195.1256)" class="st1" width="31.8" height="8.7"/>
		<g>
		</g>
		
			<rect x="124.4" y="75.9" transform="matrix(0.7071 -0.7071 0.7071 0.7071 -27.2316 117.922)" class="st1" width="8.7" height="31.8"/>
	</g>
	<rect x="179" y="53.3" class="st1" width="8.7" height="32.1"/>
</g>
</svg>
