<?xml version="1.0" encoding="utf-8"?>
<!-- Generator: Adobe Illustrator 22.1.0, SVG Export Plug-In . SVG Version: 6.00 Build 0)  -->
<svg version="1.1" id="Layer_1" xmlns="http://www.w3.org/2000/svg" xmlns:xlink="http://www.w3.org/1999/xlink" x="0px" y="0px"
	 viewBox="0 0 300 300" style="enable-background:new 0 0 300 300;" xml:space="preserve">
<style type="text/css">
	.st0{fill:#84BD00;}
	.st1{fill:#FFFFFF;}
	.st2{fill:#833177;}
	.st3{fill:#0093B2;}
	.st4{fill:#FFD100;}
	.st5{fill:#ED8B00;}
</style>
<g>
	<circle class="st0" cx="150" cy="150" r="150"/>
	<g>
		<g>
			<path class="st1" d="M180.9,248.8H68.2c-8.8,0-15.9-7.1-15.9-15.9V63.1c0-8.8,7.1-15.9,15.9-15.9h112.8c5.4,0,10.4,2.8,13.4,7.4
				l40.5,6.3c8.2,1.4,13.9,9.1,12.7,17.2l-24.5,157.7c-0.6,3.9-2.7,7.4-6,9.8c-3.3,2.4-7.5,3.4-11.5,2.7l-15.5-2.5
				C187.3,247.7,184.1,248.8,180.9,248.8z M194.2,238.1l12.6,1.9c3.5,0.6,6.9-1.9,7.5-5.4l24.5-157.7c0.3-1.7-0.2-3.5-1.2-4.9
				c-1-1.3-2.5-2.2-4.1-2.3l-38.4-5.9v169.6C195.1,234.8,194.8,236.5,194.2,238.1z M68.1,56.4c-3.7,0-6.7,3-6.8,6.9l0,169.5
				c0,3.8,3.1,6.9,6.8,6.9h111.6c3.8,0,6.8-3,6.8-6.7V63.3c0-3.8-3.1-6.9-6.8-6.9H68.1z"/>
		</g>
		<path class="st1" d="M143.4,138.4c0-0.6,0-1,0-1.6c0-8.6-7-15.7-15.7-15.7s-15.7,7-15.7,15.7c0,0.6,0,1,0,1.4
			c-7.2,1.4-12.4,7.8-12.4,15.5c0,8.6,7,15.7,15.7,15.7c1.4,0,2.8-0.2,4-0.6l-2.4,10.2h21.9l-2.6-10c1.2,0.2,2.4,0.4,3.6,0.4
			c8.6,0,15.7-7,15.7-15.7C155.7,146.2,150.4,140,143.4,138.4z"/>
		<path class="st1" d="M81.8,220.4c0-0.2,0-0.4,0-0.4c0-2.6-2.2-4.8-4.8-4.8c-2.6,0-4.8,2.2-4.8,4.8c0,0.2,0,0.4,0,0.4
			c-2.4,0.4-4,2.4-4,4.8c0,2.6,2.2,4.8,4.8,4.8c0.4,0,0.8,0,1.2-0.2l-0.8,3.2h6.8l-0.8-3.2c0.4,0,0.8,0.2,1.2,0.2
			c2.6,0,4.8-2.2,4.8-4.8C85.6,222.8,84,220.8,81.8,220.4z"/>
		<path class="st1" d="M174.9,66.9c0-0.2,0-0.4,0-0.4c0-2.6-2.2-4.8-4.8-4.8c-2.6,0-4.8,2.2-4.8,4.8c0,0.2,0,0.4,0,0.4
			c-2.2,0.4-3.8,2.4-3.8,4.8c0,2.6,2.2,4.8,4.8,4.8c0.4,0,0.8,0,1.2-0.2l-1,3.2h6.8l-0.8-3.2c0.4,0,0.8,0.2,1.2,0.2
			c2.6,0,4.8-2.2,4.8-4.8C178.7,69.3,176.9,67.3,174.9,66.9z"/>
		<path class="st1" d="M226.9,80.4c0-0.2,0-0.2,0-0.4c0.4-2.6-1.4-4.8-4-5.2c-2.6-0.4-5,1.4-5.4,3.8c0,0.2,0,0.2,0,0.4
			c-2.2,0-4,1.6-4.4,3.8c-0.4,2.6,1.4,4.8,4,5.2c0.4,0,0.8,0,1.2,0l-1.2,2.8l6.4,1l-0.2-3c0.4,0.2,0.6,0.2,1,0.2
			c2.6,0.4,5-1.4,5.4-3.8C230.1,83.2,228.9,81.2,226.9,80.4z"/>
	</g>
</g>
</svg>
