<?xml version="1.0" encoding="utf-8"?>
<!-- Generator: Adobe Illustrator 22.1.0, SVG Export Plug-In . SVG Version: 6.00 Build 0)  -->
<svg version="1.1" id="Layer_1" xmlns="http://www.w3.org/2000/svg" xmlns:xlink="http://www.w3.org/1999/xlink" x="0px" y="0px"
	 viewBox="0 0 300 300" style="enable-background:new 0 0 300 300;" xml:space="preserve">
<style type="text/css">
	.st0{fill:#84BD00;}
	.st1{fill:#FFFFFF;}
	.st2{fill:#833177;}
	.st3{fill:#0093B2;}
	.st4{fill:#FFD100;}
	.st5{fill:#ED8B00;}
</style>
<g>
	<circle class="st3" cx="150" cy="150" r="150"/>
	<g>
		<rect x="212.7" y="163.1" class="st1" width="8.6" height="23"/>
		<rect x="226.2" y="163.1" class="st1" width="8.6" height="23"/>
		<path class="st1" d="M147,98.2c4.4,2.2,9.1,2.7,13.1,2.6c-3.7,6.1-4.1,13.3-2.3,17.5c1.2,2.8,4.7,11.4,16,11.4H206
			c7.9,0,7.9,2.7,7.9,5.8l0,18.8h6.2l0-18.8c0-3.3,0-12-14.1-12h-32.1c-5.1,0-8.1-2.2-10.3-7.6c-1.3-3-1-12.3,7.3-17.3
			c1.4-0.8,1.9-2.5,1.2-4c-0.7-1.4-2.3-2.1-3.8-1.6c-0.1,0-10.4,3.6-18.4-0.4c-4-2-6.8-5.8-8.4-11.1c-1.8-6.2-1.1-11.6,2.2-16.1
			c5.1-6.9,14.7-9.7,16.3-9.7v-6.2c-3.5,0-14.9,3.6-21.2,12.1c-4.5,6.1-5.7,13.6-3.3,21.7C137.5,90.4,141.4,95.4,147,98.2z"/>
		<path class="st1" d="M227.7,154.3h6.2v-22.7c0-17.6-9.7-27.6-26.6-27.6h-15.6c4.4-5.7,5.3-11.8,5.3-20.5
			c0-11.4-8.9-23.6-28.4-23.6v6.2c16.4,0,22.2,9.4,22.2,17.4c0,9.6-0.8,14.8-8.4,21.2c-1,0.8-1.4,2.2-0.9,3.4c0.4,1.2,1.6,2,2.9,2
			h22.9c13.6,0,20.5,7.2,20.5,21.4L227.7,154.3z"/>
		<polygon class="st1" points="247,240.5 192.6,186.1 207,186.1 207,163.1 169.6,163.1 58.9,52.4 49,62.4 149.8,163.1 52.4,163.1 
			52.4,186.1 172.7,186.1 237.1,250.4 		"/>
	</g>
</g>
</svg>
