<?xml version="1.0" encoding="utf-8"?>
<!-- Generator: Adobe Illustrator 22.1.0, SVG Export Plug-In . SVG Version: 6.00 Build 0)  -->
<svg version="1.1" id="Layer_1" xmlns="http://www.w3.org/2000/svg" xmlns:xlink="http://www.w3.org/1999/xlink" x="0px" y="0px"
	 viewBox="0 0 300 300" style="enable-background:new 0 0 300 300;" xml:space="preserve">
<style type="text/css">
	.st0{fill:#767676;}
	.st1{fill:#FFFFFF;}
</style>
<circle class="st0" cx="150" cy="150" r="150"/>
<g>
	<path class="st1" d="M92.4,169.8c-4.3-10.5-7-21.4-8-32.7c-0.7-7.2-1-14.5-0.2-21.7c3.4-29.5,23.8-54.9,54.2-61.4
		c13.7-2.9,27.3-2.6,40.3,2.9c17.8,7.5,29.4,20.6,33.6,39.6c3.3,15,1.2,29.3-7.9,42.1c-7.5,10.6-17.8,16.7-30.7,18.6
		c-8,1.2-15.9,0.6-23.2-3.2c-10-5.1-15.8-13.4-18.3-24.1c-1.7-6.9-1.4-13.8,1.8-20.3c5.5-11.2,19.2-17,30.4-12.9
		c8.9,3.3,12.1,11.9,10.5,19.3c-1.2,5.7-5.4,8.6-10.7,10.1c-4.1,1.1-8.1,0.8-12.2-0.7c-0.5,3.8,1,6.5,3.8,8.6
		c4.5,3.4,9.6,4.3,15,3.4c12.4-2.1,22.9-11.9,24-24.5c1-12-1.2-22.1-13.3-31.5c-6.6-5.1-22-7.9-29.2-7.2c-8.5,0.8-16.4,3.3-23.6,8
		c-7.5,4.9-13.1,11.5-16.9,19.7c-5,11.1-5,23.1-3.3,35c2.5,17.1,9.6,32.3,19.5,46.2c0.2,0.3,10.3,13.2,11.7,14.7
		c7.8,8.6,15.7,17.2,23.5,25.8c0,0,22,21.9,22.5,23.1s0.2,3.3-2.7,3.3c-18.9,0.1-26.4-0.1-34.3,0.1c-3,0.1-5.7-3.4-6.2-4.1
		C126.3,225.4,107.4,204.3,92.4,169.8z"/>
</g>
</svg>
