<?xml version="1.0" encoding="utf-8"?>
<!-- Generator: Adobe Illustrator 22.1.0, SVG Export Plug-In . SVG Version: 6.00 Build 0)  -->
<svg version="1.1" id="Layer_1" xmlns="http://www.w3.org/2000/svg" xmlns:xlink="http://www.w3.org/1999/xlink" x="0px" y="0px"
	 viewBox="0 0 300 300" style="enable-background:new 0 0 300 300;" xml:space="preserve">
<style type="text/css">
	.st0{fill:#767676;}
	.st1{fill:#FFFFFF;}
</style>
<g>
	<circle class="st0" cx="150" cy="150" r="150"/>
	<g>
		<path class="st1" d="M136.9,116.4c-8.1-4.1-12.8-11.2-12.8-19.6V65.7H137V40.4H73.1v25.3H86v31.2c0,8.1-4.9,15.6-12.8,19.6
			c-10.6,5.3-17.3,15.6-17.3,26.8V246h98.2V143.2C154.2,132,147.5,121.7,136.9,116.4z M81.2,57.6v-9.1h47.7v9.1h-4.8H86H81.2z
			 M146.1,237.9H64v-94.7c0-8.1,4.9-15.6,12.8-19.6C87.4,118.3,94,108,94,96.8V65.7h22v31.2c0,11.4,6.5,21.4,17.3,26.8
			c7.9,3.9,12.8,11.4,12.8,19.6V237.9z"/>
		<path class="st1" d="M241.2,184.9c8.3-8.9,12.5-21.1,11.6-33.4l-5.5-63.8h-76.1l-5.5,63.8c-0.9,12.3,3.3,24.4,11.6,33.4
			c7.4,8,17.2,12.7,27.8,13.7v39.3h-21.7v8.1h51.5v-8.1h-21.7v-39.3C224.1,197.6,233.8,192.8,241.2,184.9z M240,95.7l2,23.5
			l-14.2,6.6l-18.5-8.6l-18.5,8.6l-14.2-6.6l2-23.5H240z M173.9,152.1l2.1-24.3l14.9,6.9l18.5-8.6l18.5,8.6l14.9-6.9l2.1,24.3
			c0.8,10.2-2.6,19.9-9.5,27.3c-6.8,7.3-16,11.3-26,11.3c-10,0-19.2-4-26-11.3C176.5,172,173.1,162.3,173.9,152.1z"/>
	</g>
</g>
</svg>
