<?xml version="1.0" encoding="utf-8"?>
<!-- Generator: Adobe Illustrator 22.1.0, SVG Export Plug-In . SVG Version: 6.00 Build 0)  -->
<svg version="1.1" id="Layer_1" xmlns="http://www.w3.org/2000/svg" xmlns:xlink="http://www.w3.org/1999/xlink" x="0px" y="0px"
	 viewBox="0 0 300 300" style="enable-background:new 0 0 300 300;" xml:space="preserve">
<style type="text/css">
	.st0{fill:#767676;}
	.st1{fill:#FFFFFF;}
</style>
<circle class="st0" cx="150" cy="150" r="150"/>
<g>
	<path class="st1" d="M61.2,241l0-3.2c0,0,0,0,0,0V241z"/>
	<path class="st1" d="M257.8,76c-5.6-2.3-11.4-3.5-17.4-3.5c-4.6,0-9.1,0.7-13.5,2c0,0,0-0.1,0-0.1c5.2-16.7-2.3-31.1-2.7-31.7
		c-0.9-1.7-2.6-2.7-4.5-2.7c-0.7,0-1.3,0.1-1.9,0.4c-11.3,4.7-20.1,13.5-24.8,24.8c-2.7,6.6-3.9,13.7-3.4,20.8
		c-10.4-7.5-20.5-11.6-28.7-11.6c-5.7,0-10.4,1.8-14,5.5c-23.3,23.3-50.9,72.4-61.7,92.4c-8.8,16.4-16.8,32.6-22.5,45.4
		c-9.5,21.6-8.5,24.1-5.9,26.7c1.1,1.1,2.6,1.7,4.4,1.7c6.7,0,38-14.2,71.3-32.3c19.3-10.5,66.5-37.3,88.8-59.6
		c4.5-4.5,8.5-13,2.4-27.9c-2-4.9-5.1-10.2-9-15.6c1.9,0.2,3.8,0.3,5.6,0.3c7.3,0,14-1.6,19.9-4.7c15.4-8.1,20.4-23.7,20.6-24.3
		C261.4,79.6,260.2,77,257.8,76z M202.3,69.1c3-7.1,8.1-13.1,14.7-17c1.4,4.6,2.6,11.8,0.2,19.4c-2.4,7.6-8,14.3-16.5,19.8
		C198.8,83.9,199.4,76.1,202.3,69.1z M214.1,147.1c-10.3,10.3-27.1,22.7-50.1,36.8l-25-25c-1-1-2.2-1.5-3.6-1.5
		c-1.3,0-2.6,0.5-3.6,1.5c-1,1-1.5,2.2-1.5,3.6c0,1.4,0.5,2.6,1.5,3.6l23.2,23.2c-35.5,21.1-73.7,39.6-88.5,45.1
		c3.4-9.4,12.2-28.7,24.7-52.3l9.5,9.5c1,1,2.2,1.5,3.6,1.5c1.3,0,2.6-0.5,3.6-1.5c2-2,2-5.2,0-7.1l-11.7-11.7
		c9.3-17.1,23.1-41,37.6-61.3l23.6,23.6c1,1,2.2,1.5,3.6,1.5s2.6-0.5,3.6-1.5c2-2,2-5.2,0-7.1L140,103.3c5-6.6,9.7-12.1,14-16.3
		c1.7-1.7,3.9-2.5,6.9-2.5c7.4,0,18.3,5.5,29.2,14.8c11,9.4,20,20.9,24.2,31C216.5,135.7,218.3,143,214.1,147.1z M235.3,97.5
		c-4.5,2.3-9.6,3.5-15.2,3.5c-3.3,0-6.8-0.4-10.5-1.2c6.4-10.7,18-17.2,30.6-17.2c2.9,0,5.9,0.4,8.7,1.1
		C246.7,87.9,242.5,93.8,235.3,97.5z"/>
</g>
</svg>
