<?xml version="1.0" encoding="utf-8"?>
<!-- Generator: Adobe Illustrator 22.1.0, SVG Export Plug-In . SVG Version: 6.00 Build 0)  -->
<svg version="1.1" id="Layer_1" xmlns="http://www.w3.org/2000/svg" xmlns:xlink="http://www.w3.org/1999/xlink" x="0px" y="0px"
	 viewBox="0 0 300 300" style="enable-background:new 0 0 300 300;" xml:space="preserve">
<style type="text/css">
	.st0{fill:#767676;}
	.st1{fill:#FFFFFF;}
</style>
<g>
	<circle class="st0" cx="150" cy="150" r="150"/>
	<path class="st1" d="M159.4,248.5c-20.4,0-33.6-4.5-37.2-5.9c-5.9-2.3-10-7.8-10.4-14c-0.1-1.6-0.2-3.4-0.2-5.4
		c0-4.3-0.8-4.3-3.4-4.3c-1.1,0-2.3,0.1-3.6,0.4c-2.1,0.5-5.4,1-9.1,1c-14.1,0-23.2-8.5-23.2-21.7c0-2.1,0-4.3,0.1-6.4
		c0.1-4.4,0.2-15.6-1-19c-0.5-0.2-1.2-0.4-1.9-0.7c-1.2-0.5-3.3-1.3-3.9-1.4c-3.5-0.9-6.7-3.4-8.4-6.8c-1.8-3.4-2-7.4-0.7-11
		c2.4-6.6,8.6-15.3,13.6-22.3c1.7-2.4,3.1-4.3,4.1-5.8c-3.9-13.5-1.6-28.8,6.5-43c10.3-18.3,28.4-32.3,48.4-37.5
		c8.3-2.2,17.8-3.3,27.6-3.3c13.2,0,32.5,2.1,50.1,11.9c17.9,10,29.2,25.3,33.4,45.4c7.8,37.3-6.9,57.1-17.7,71.6l0,0
		c-5.1,6.9-9.5,12.8-11.2,19.3c-4.1,15.9,1.9,27.7,4.4,32.8c1.6,3.2,1.8,7,0.4,10.4c-1.3,3.4-4.1,6-7.5,7.2
		C192.3,245.6,175.8,248.5,159.4,248.5z M108.1,209.9c5.7,0,12.4,2.3,12.4,13.3c0,1.8,0.1,3.4,0.1,4.8c0.2,2.8,2,5.3,4.7,6.3
		c3.2,1.2,15.1,5.3,34,5.3c15.4,0,30.9-2.7,46-8.1c1-0.4,1.8-1.1,2.2-2.1c0.4-1,0.4-2.1-0.1-3c-3-5.9-10-19.9-5.1-39
		c2.1-8.3,7-14.8,12.7-22.5l0,0c10.9-14.6,23.2-31.1,16.1-64.4c-3.7-17.4-13.4-30.7-29-39.4c-15.9-8.9-33.7-10.8-45.7-10.8
		c-9,0-17.8,1-25.3,3c-17.6,4.6-33.6,17-42.8,33.2c-6.9,12.3-8.9,25.2-5.5,36.5c0.7,2.2,0.3,4.6-1,6.6c-1,1.6-2.6,3.8-4.4,6.3
		c-4.8,6.7-10.7,14.9-12.7,20.4c-0.5,1.2-0.4,2.6,0.2,3.8c0.6,1.2,1.7,2,2.9,2.4c0.7,0.2,3.2,1.2,4.6,1.7c1.2,0.5,2.2,0.9,2.6,1
		c5.6,1.8,6.4,9.5,6.1,27.2c0,2.1-0.1,4.2-0.1,6.3c0,15.3,16.1,13.1,21.5,11.9C104.5,210.1,106.4,209.9,108.1,209.9z M152.1,173.4
		c-4.1,0-5.4-0.1-20.5-56.9l-6.6,11.8c-1.6,2.8-4.5,4.5-7.7,4.5h-9.4v-9h9.4l11.9-21.2c0.9-1.6,2.7-2.5,4.5-2.2
		c1.8,0.2,3.3,1.5,3.8,3.3c5,19,10.8,39.6,14.5,51.9c3.7-13.4,9.5-36.8,14.6-58.2c0.4-1.9,2-3.3,4-3.4c1.9-0.2,3.7,0.9,4.5,2.7
		l12.1,27.3l19.9-0.1v9h-20.1c-3.5,0-6.6-2.1-8-5.2l-6.7-15.2C157.6,173.3,156.3,173.4,152.1,173.4
		C152.2,173.4,152.2,173.4,152.1,173.4z M172.2,112.3c-14.6,61-15.9,61-20,61.1"/>
</g>
</svg>
